const cueSet2 = [
  {
          "duration": 0.0765305,
          "durationTicks": 1920,
          "midi": 43,
          "name": "G2",
          "ticks": 0,
          "time": 0,
          "velocity": 0.6299212598425197
        },
        {
          "duration": 0.0765305,
          "durationTicks": 1920,
          "midi": 44,
          "name": "G#2",
          "ticks": 3840,
          "time": 0.153061,
          "velocity": 0.6299212598425197
        },
        {
          "duration": 0.0765305,
          "durationTicks": 1920,
          "midi": 43,
          "name": "G2",
          "ticks": 7680,
          "time": 0.306122,
          "velocity": 0.6299212598425197
        },
        {
          "duration": 0.07653049999999995,
          "durationTicks": 1920,
          "midi": 44,
          "name": "G#2",
          "ticks": 11520,
          "time": 0.459183,
          "velocity": 0.6299212598425197
        },
        {
          "duration": 0.07653050000000006,
          "durationTicks": 1920,
          "midi": 43,
          "name": "G2",
          "ticks": 15360,
          "time": 0.612244,
          "velocity": 0.6299212598425197
        },
        {
          "duration": 0.07653049999999995,
          "durationTicks": 1920,
          "midi": 44,
          "name": "G#2",
          "ticks": 19200,
          "time": 0.765305,
          "velocity": 0.6299212598425197
        },
        {
          "duration": 0.07653050000000006,
          "durationTicks": 1920,
          "midi": 43,
          "name": "G2",
          "ticks": 23040,
          "time": 0.918366,
          "velocity": 0.6299212598425197
        },
        {
          "duration": 0.07653050000000006,
          "durationTicks": 1920,
          "midi": 44,
          "name": "G#2",
          "ticks": 26880,
          "time": 1.071427,
          "velocity": 0.6299212598425197
        },
        {
          "duration": 0.07653050000000006,
          "durationTicks": 1920,
          "midi": 43,
          "name": "G2",
          "ticks": 30720,
          "time": 1.224488,
          "velocity": 0.6299212598425197
        },
        {
          "duration": 0.07653049999999983,
          "durationTicks": 1920,
          "midi": 44,
          "name": "G#2",
          "ticks": 34560,
          "time": 1.3775490000000001,
          "velocity": 0.6299212598425197
        },
        {
          "duration": 0.07653050000000006,
          "durationTicks": 1920,
          "midi": 43,
          "name": "G2",
          "ticks": 38400,
          "time": 1.53061,
          "velocity": 0.6299212598425197
        },
        {
          "duration": 0.07653050000000006,
          "durationTicks": 1920,
          "midi": 44,
          "name": "G#2",
          "ticks": 42240,
          "time": 1.683671,
          "velocity": 0.6299212598425197
        },
        {
          "duration": 0.07653050000000006,
          "durationTicks": 1920,
          "midi": 43,
          "name": "G2",
          "ticks": 46080,
          "time": 1.836732,
          "velocity": 0.6299212598425197
        },
        {
          "duration": 0.07653050000000006,
          "durationTicks": 1920,
          "midi": 44,
          "name": "G#2",
          "ticks": 49920,
          "time": 1.9897930000000001,
          "velocity": 0.6299212598425197
        },
        {
          "duration": 0.07653050000000006,
          "durationTicks": 1920,
          "midi": 43,
          "name": "G2",
          "ticks": 53760,
          "time": 2.142854,
          "velocity": 0.6299212598425197
        },
        {
          "duration": 0.07653050000000006,
          "durationTicks": 1920,
          "midi": 44,
          "name": "G#2",
          "ticks": 57600,
          "time": 2.295915,
          "velocity": 0.6299212598425197
        },
        {
          "duration": 0.07653050000000006,
          "durationTicks": 1920,
          "midi": 43,
          "name": "G2",
          "ticks": 61440,
          "time": 2.448976,
          "velocity": 0.6299212598425197
        },
        {
          "duration": 0.07653050000000006,
          "durationTicks": 1920,
          "midi": 44,
          "name": "G#2",
          "ticks": 65280,
          "time": 2.602037,
          "velocity": 0.6299212598425197
        },
        {
          "duration": 0.07653049999999961,
          "durationTicks": 1920,
          "midi": 43,
          "name": "G2",
          "ticks": 69120,
          "time": 2.7550980000000003,
          "velocity": 0.6299212598425197
        },
        {
          "duration": 0.07653050000000006,
          "durationTicks": 1920,
          "midi": 44,
          "name": "G#2",
          "ticks": 72960,
          "time": 2.908159,
          "velocity": 0.6299212598425197
        },
        {
          "duration": 0.07653050000000006,
          "durationTicks": 1920,
          "midi": 43,
          "name": "G2",
          "ticks": 76800,
          "time": 3.06122,
          "velocity": 0.6299212598425197
        },
        {
          "duration": 0.07653050000000006,
          "durationTicks": 1920,
          "midi": 44,
          "name": "G#2",
          "ticks": 80640,
          "time": 3.214281,
          "velocity": 0.6299212598425197
        },
        {
          "duration": 0.07653050000000006,
          "durationTicks": 1920,
          "midi": 43,
          "name": "G2",
          "ticks": 84480,
          "time": 3.367342,
          "velocity": 0.6299212598425197
        },
        {
          "duration": 0.07653050000000006,
          "durationTicks": 1920,
          "midi": 44,
          "name": "G#2",
          "ticks": 88320,
          "time": 3.520403,
          "velocity": 0.6299212598425197
        },
        {
          "duration": 0.07653050000000006,
          "durationTicks": 1920,
          "midi": 43,
          "name": "G2",
          "ticks": 92160,
          "time": 3.673464,
          "velocity": 0.6299212598425197
        },
        {
          "duration": 0.07653050000000006,
          "durationTicks": 1920,
          "midi": 44,
          "name": "G#2",
          "ticks": 96000,
          "time": 3.826525,
          "velocity": 0.6299212598425197
        },
        {
          "duration": 0.07653049999999961,
          "durationTicks": 1920,
          "midi": 43,
          "name": "G2",
          "ticks": 99840,
          "time": 3.9795860000000003,
          "velocity": 0.6299212598425197
        },
        {
          "duration": 0.07653049999999961,
          "durationTicks": 1920,
          "midi": 44,
          "name": "G#2",
          "ticks": 103680,
          "time": 4.132647,
          "velocity": 0.6299212598425197
        },
        {
          "duration": 0.0765305000000005,
          "durationTicks": 1920,
          "midi": 43,
          "name": "G2",
          "ticks": 107520,
          "time": 4.285708,
          "velocity": 0.6299212598425197
        },
        {
          "duration": 0.0765305000000005,
          "durationTicks": 1920,
          "midi": 44,
          "name": "G#2",
          "ticks": 111360,
          "time": 4.438769,
          "velocity": 0.6299212598425197
        },
        {
          "duration": 0.0765305000000005,
          "durationTicks": 1920,
          "midi": 43,
          "name": "G2",
          "ticks": 115200,
          "time": 4.59183,
          "velocity": 0.6299212598425197
        },
        {
          "duration": 0.0765305000000005,
          "durationTicks": 1920,
          "midi": 44,
          "name": "G#2",
          "ticks": 119040,
          "time": 4.744891,
          "velocity": 0.6299212598425197
        },
        {
          "duration": 0.07653049999999961,
          "durationTicks": 1920,
          "midi": 43,
          "name": "G2",
          "ticks": 122880,
          "time": 4.897952,
          "velocity": 0.6299212598425197
        },
        {
          "duration": 0.07653049999999961,
          "durationTicks": 1920,
          "midi": 44,
          "name": "G#2",
          "ticks": 126720,
          "time": 5.051013,
          "velocity": 0.6299212598425197
        },
        {
          "duration": 0.07653049999999961,
          "durationTicks": 1920,
          "midi": 43,
          "name": "G2",
          "ticks": 130560,
          "time": 5.204074,
          "velocity": 0.6299212598425197
        },
        {
          "duration": 0.07653049999999961,
          "durationTicks": 1920,
          "midi": 44,
          "name": "G#2",
          "ticks": 134400,
          "time": 5.357135,
          "velocity": 0.6299212598425197
        },
        {
          "duration": 0.07653049999999961,
          "durationTicks": 1920,
          "midi": 43,
          "name": "G2",
          "ticks": 138240,
          "time": 5.5101960000000005,
          "velocity": 0.6299212598425197
        },
        {
          "duration": 0.0765305000000005,
          "durationTicks": 1920,
          "midi": 44,
          "name": "G#2",
          "ticks": 142080,
          "time": 5.663257,
          "velocity": 0.6299212598425197
        },
        {
          "duration": 0.0765305000000005,
          "durationTicks": 1920,
          "midi": 43,
          "name": "G2",
          "ticks": 145920,
          "time": 5.816318,
          "velocity": 0.6299212598425197
        },
        {
          "duration": 0.0765305000000005,
          "durationTicks": 1920,
          "midi": 44,
          "name": "G#2",
          "ticks": 149760,
          "time": 5.969379,
          "velocity": 0.6299212598425197
        },
        {
          "duration": 0.07653049999999961,
          "durationTicks": 1920,
          "midi": 43,
          "name": "G2",
          "ticks": 153600,
          "time": 6.12244,
          "velocity": 0.6299212598425197
        },
        {
          "duration": 0.07653049999999961,
          "durationTicks": 1920,
          "midi": 44,
          "name": "G#2",
          "ticks": 157440,
          "time": 6.275501,
          "velocity": 0.6299212598425197
        },
        {
          "duration": 0.07653049999999961,
          "durationTicks": 1920,
          "midi": 43,
          "name": "G2",
          "ticks": 161280,
          "time": 6.428562,
          "velocity": 0.6299212598425197
        },
        {
          "duration": 0.07653049999999961,
          "durationTicks": 1920,
          "midi": 44,
          "name": "G#2",
          "ticks": 165120,
          "time": 6.5816230000000004,
          "velocity": 0.6299212598425197
        },
        {
          "duration": 0.0765305000000005,
          "durationTicks": 1920,
          "midi": 43,
          "name": "G2",
          "ticks": 168960,
          "time": 6.734684,
          "velocity": 0.6299212598425197
        },
        {
          "duration": 0.0765305000000005,
          "durationTicks": 1920,
          "midi": 44,
          "name": "G#2",
          "ticks": 172800,
          "time": 6.887745,
          "velocity": 0.6299212598425197
        },
        {
          "duration": 0.0765305000000005,
          "durationTicks": 1920,
          "midi": 43,
          "name": "G2",
          "ticks": 176640,
          "time": 7.040806,
          "velocity": 0.6299212598425197
        },
        {
          "duration": 0.0765305000000005,
          "durationTicks": 1920,
          "midi": 44,
          "name": "G#2",
          "ticks": 180480,
          "time": 7.193867,
          "velocity": 0.6299212598425197
        },
        {
          "duration": 0.07653049999999961,
          "durationTicks": 1920,
          "midi": 43,
          "name": "G2",
          "ticks": 184320,
          "time": 7.346928,
          "velocity": 0.6299212598425197
        },
        {
          "duration": 0.07653049999999961,
          "durationTicks": 1920,
          "midi": 44,
          "name": "G#2",
          "ticks": 188160,
          "time": 7.499989,
          "velocity": 0.6299212598425197
        },
        {
          "duration": 0.07653049999999961,
          "durationTicks": 1920,
          "midi": 43,
          "name": "G2",
          "ticks": 192000,
          "time": 7.65305,
          "velocity": 0.6299212598425197
        },
        {
          "duration": 0.07653049999999961,
          "durationTicks": 1920,
          "midi": 44,
          "name": "G#2",
          "ticks": 195840,
          "time": 7.8061110000000005,
          "velocity": 0.6299212598425197
        },
        {
          "duration": 0.07653049999999872,
          "durationTicks": 1920,
          "midi": 43,
          "name": "G2",
          "ticks": 199680,
          "time": 7.959172000000001,
          "velocity": 0.6299212598425197
        },
        {
          "duration": 0.0765305000000005,
          "durationTicks": 1920,
          "midi": 44,
          "name": "G#2",
          "ticks": 203520,
          "time": 8.112233,
          "velocity": 0.6299212598425197
        },
        {
          "duration": 0.07653049999999872,
          "durationTicks": 1920,
          "midi": 43,
          "name": "G2",
          "ticks": 207360,
          "time": 8.265294,
          "velocity": 0.6299212598425197
        },
        {
          "duration": 0.0765305000000005,
          "durationTicks": 1920,
          "midi": 44,
          "name": "G#2",
          "ticks": 211200,
          "time": 8.418355,
          "velocity": 0.6299212598425197
        },
        {
          "duration": 0.0765305000000005,
          "durationTicks": 1920,
          "midi": 43,
          "name": "G2",
          "ticks": 215040,
          "time": 8.571416,
          "velocity": 0.6299212598425197
        },
        {
          "duration": 0.0765305000000005,
          "durationTicks": 1920,
          "midi": 44,
          "name": "G#2",
          "ticks": 218880,
          "time": 8.724477,
          "velocity": 0.6299212598425197
        },
        {
          "duration": 0.0765305000000005,
          "durationTicks": 1920,
          "midi": 43,
          "name": "G2",
          "ticks": 222720,
          "time": 8.877538,
          "velocity": 0.6299212598425197
        },
        {
          "duration": 0.0765305000000005,
          "durationTicks": 1920,
          "midi": 44,
          "name": "G#2",
          "ticks": 226560,
          "time": 9.030599,
          "velocity": 0.6299212598425197
        },
        {
          "duration": 0.0765305000000005,
          "durationTicks": 1920,
          "midi": 43,
          "name": "G2",
          "ticks": 230400,
          "time": 9.18366,
          "velocity": 0.6299212598425197
        },
        {
          "duration": 0.07653049999999872,
          "durationTicks": 1920,
          "midi": 44,
          "name": "G#2",
          "ticks": 234240,
          "time": 9.336721,
          "velocity": 0.6299212598425197
        },
        {
          "duration": 0.0765305000000005,
          "durationTicks": 1920,
          "midi": 43,
          "name": "G2",
          "ticks": 238080,
          "time": 9.489782,
          "velocity": 0.6299212598425197
        },
        {
          "duration": 0.07653049999999872,
          "durationTicks": 1920,
          "midi": 44,
          "name": "G#2",
          "ticks": 241920,
          "time": 9.642843000000001,
          "velocity": 0.6299212598425197
        },
        {
          "duration": 0.0765305000000005,
          "durationTicks": 1920,
          "midi": 43,
          "name": "G2",
          "ticks": 245760,
          "time": 9.795904,
          "velocity": 0.6299212598425197
        },
        {
          "duration": 0.0765305000000005,
          "durationTicks": 1920,
          "midi": 44,
          "name": "G#2",
          "ticks": 249600,
          "time": 9.948965,
          "velocity": 0.6299212598425197
        },
        {
          "duration": 0.0765305000000005,
          "durationTicks": 1920,
          "midi": 43,
          "name": "G2",
          "ticks": 253440,
          "time": 10.102026,
          "velocity": 0.6299212598425197
        },
        {
          "duration": 0.0765305000000005,
          "durationTicks": 1920,
          "midi": 44,
          "name": "G#2",
          "ticks": 257280,
          "time": 10.255087,
          "velocity": 0.6299212598425197
        },
        {
          "duration": 0.07653049999999872,
          "durationTicks": 1920,
          "midi": 43,
          "name": "G2",
          "ticks": 261120,
          "time": 10.408148,
          "velocity": 0.6299212598425197
        },
        {
          "duration": 0.0765305000000005,
          "durationTicks": 1920,
          "midi": 44,
          "name": "G#2",
          "ticks": 264960,
          "time": 10.561209,
          "velocity": 0.6299212598425197
        },
        {
          "duration": 0.07653049999999872,
          "durationTicks": 1920,
          "midi": 43,
          "name": "G2",
          "ticks": 268800,
          "time": 10.71427,
          "velocity": 0.6299212598425197
        },
        {
          "duration": 0.0765305000000005,
          "durationTicks": 1920,
          "midi": 44,
          "name": "G#2",
          "ticks": 272640,
          "time": 10.867331,
          "velocity": 0.6299212598425197
        },
        {
          "duration": 0.07653049999999872,
          "durationTicks": 1920,
          "midi": 43,
          "name": "G2",
          "ticks": 276480,
          "time": 11.020392000000001,
          "velocity": 0.6299212598425197
        },
        {
          "duration": 0.0765305000000005,
          "durationTicks": 1920,
          "midi": 44,
          "name": "G#2",
          "ticks": 280320,
          "time": 11.173453,
          "velocity": 0.6299212598425197
        },
        {
          "duration": 0.0765305000000005,
          "durationTicks": 1920,
          "midi": 43,
          "name": "G2",
          "ticks": 284160,
          "time": 11.326514,
          "velocity": 0.6299212598425197
        },
        {
          "duration": 0.0765305000000005,
          "durationTicks": 1920,
          "midi": 44,
          "name": "G#2",
          "ticks": 288000,
          "time": 11.479575,
          "velocity": 0.6299212598425197
        },
        {
          "duration": 0.0765305000000005,
          "durationTicks": 1920,
          "midi": 43,
          "name": "G2",
          "ticks": 291840,
          "time": 11.632636,
          "velocity": 0.6299212598425197
        },
        {
          "duration": 0.07653049999999872,
          "durationTicks": 1920,
          "midi": 44,
          "name": "G#2",
          "ticks": 295680,
          "time": 11.785697,
          "velocity": 0.6299212598425197
        },
        {
          "duration": 0.0765305000000005,
          "durationTicks": 1920,
          "midi": 43,
          "name": "G2",
          "ticks": 299520,
          "time": 11.938758,
          "velocity": 0.6299212598425197
        },
        {
          "duration": 0.07653049999999872,
          "durationTicks": 1920,
          "midi": 44,
          "name": "G#2",
          "ticks": 303360,
          "time": 12.091819000000001,
          "velocity": 0.6299212598425197
        },
        {
          "duration": 0.0765305000000005,
          "durationTicks": 1920,
          "midi": 43,
          "name": "G2",
          "ticks": 307200,
          "time": 12.24488,
          "velocity": 0.6299212598425197
        },
        {
          "duration": 0.0765305000000005,
          "durationTicks": 1920,
          "midi": 44,
          "name": "G#2",
          "ticks": 311040,
          "time": 12.397941,
          "velocity": 0.6299212598425197
        },
        {
          "duration": 0.0765305000000005,
          "durationTicks": 1920,
          "midi": 43,
          "name": "G2",
          "ticks": 314880,
          "time": 12.551002,
          "velocity": 0.6299212598425197
        },
        {
          "duration": 0.0765305000000005,
          "durationTicks": 1920,
          "midi": 44,
          "name": "G#2",
          "ticks": 318720,
          "time": 12.704063,
          "velocity": 0.6299212598425197
        },
        {
          "duration": 0.07653049999999872,
          "durationTicks": 1920,
          "midi": 43,
          "name": "G2",
          "ticks": 322560,
          "time": 12.857124,
          "velocity": 0.6299212598425197
        },
        {
          "duration": 0.0765305000000005,
          "durationTicks": 1920,
          "midi": 44,
          "name": "G#2",
          "ticks": 326400,
          "time": 13.010185,
          "velocity": 0.6299212598425197
        },
        {
          "duration": 0.07653049999999872,
          "durationTicks": 1920,
          "midi": 43,
          "name": "G2",
          "ticks": 330240,
          "time": 13.163246000000001,
          "velocity": 0.6299212598425197
        },
        {
          "duration": 0.0765305000000005,
          "durationTicks": 1920,
          "midi": 44,
          "name": "G#2",
          "ticks": 334080,
          "time": 13.316307,
          "velocity": 0.6299212598425197
        },
        {
          "duration": 0.0765305000000005,
          "durationTicks": 1920,
          "midi": 43,
          "name": "G2",
          "ticks": 337920,
          "time": 13.469368,
          "velocity": 0.6299212598425197
        },
        {
          "duration": 0.0765305000000005,
          "durationTicks": 1920,
          "midi": 44,
          "name": "G#2",
          "ticks": 341760,
          "time": 13.622429,
          "velocity": 0.6299212598425197
        },
        {
          "duration": 0.0765305000000005,
          "durationTicks": 1920,
          "midi": 43,
          "name": "G2",
          "ticks": 345600,
          "time": 13.77549,
          "velocity": 0.6299212598425197
        },
        {
          "duration": 0.0765305000000005,
          "durationTicks": 1920,
          "midi": 44,
          "name": "G#2",
          "ticks": 349440,
          "time": 13.928551,
          "velocity": 0.6299212598425197
        },
        {
          "duration": 0.0765305000000005,
          "durationTicks": 1920,
          "midi": 43,
          "name": "G2",
          "ticks": 353280,
          "time": 14.081612,
          "velocity": 0.6299212598425197
        },
        {
          "duration": 0.07653049999999872,
          "durationTicks": 1920,
          "midi": 44,
          "name": "G#2",
          "ticks": 357120,
          "time": 14.234673,
          "velocity": 0.6299212598425197
        },
        {
          "duration": 0.0765305000000005,
          "durationTicks": 1920,
          "midi": 43,
          "name": "G2",
          "ticks": 360960,
          "time": 14.387734,
          "velocity": 0.6299212598425197
        },
        {
          "duration": 0.07653049999999872,
          "durationTicks": 1920,
          "midi": 44,
          "name": "G#2",
          "ticks": 364800,
          "time": 14.540795000000001,
          "velocity": 0.6299212598425197
        },
        {
          "duration": 0.0765305000000005,
          "durationTicks": 1920,
          "midi": 43,
          "name": "G2",
          "ticks": 368640,
          "time": 14.693856,
          "velocity": 0.6299212598425197
        },
        {
          "duration": 0.0765305000000005,
          "durationTicks": 1920,
          "midi": 44,
          "name": "G#2",
          "ticks": 372480,
          "time": 14.846917,
          "velocity": 0.6299212598425197
        },
        {
          "duration": 0.0765305000000005,
          "durationTicks": 1920,
          "midi": 43,
          "name": "G2",
          "ticks": 376320,
          "time": 14.999978,
          "velocity": 0.6299212598425197
        },
        {
          "duration": 0.0765305000000005,
          "durationTicks": 1920,
          "midi": 44,
          "name": "G#2",
          "ticks": 380160,
          "time": 15.153039,
          "velocity": 0.6299212598425197
        },
        {
          "duration": 0.07653049999999872,
          "durationTicks": 1920,
          "midi": 43,
          "name": "G2",
          "ticks": 384000,
          "time": 15.3061,
          "velocity": 0.6299212598425197
        },
        {
          "duration": 0.0765305000000005,
          "durationTicks": 1920,
          "midi": 44,
          "name": "G#2",
          "ticks": 387840,
          "time": 15.459161,
          "velocity": 0.6299212598425197
        },
        {
          "duration": 0.07653049999999872,
          "durationTicks": 1920,
          "midi": 43,
          "name": "G2",
          "ticks": 391680,
          "time": 15.612222000000001,
          "velocity": 0.6299212598425197
        },
        {
          "duration": 0.0765305000000005,
          "durationTicks": 1920,
          "midi": 44,
          "name": "G#2",
          "ticks": 395520,
          "time": 15.765283,
          "velocity": 0.6299212598425197
        },
        {
          "duration": 0.07653049999999872,
          "durationTicks": 1920,
          "midi": 43,
          "name": "G2",
          "ticks": 399360,
          "time": 15.918344000000001,
          "velocity": 0.6299212598425197
        },
        {
          "duration": 0.0765305000000005,
          "durationTicks": 1920,
          "midi": 44,
          "name": "G#2",
          "ticks": 403200,
          "time": 16.071405,
          "velocity": 0.6299212598425197
        },
        {
          "duration": 0.0765305000000005,
          "durationTicks": 1920,
          "midi": 43,
          "name": "G2",
          "ticks": 407040,
          "time": 16.224466,
          "velocity": 0.6299212598425197
        },
        {
          "duration": 0.0765305000000005,
          "durationTicks": 1920,
          "midi": 44,
          "name": "G#2",
          "ticks": 410880,
          "time": 16.377527,
          "velocity": 0.6299212598425197
        },
        {
          "duration": 0.07653049999999695,
          "durationTicks": 1920,
          "midi": 43,
          "name": "G2",
          "ticks": 414720,
          "time": 16.530588,
          "velocity": 0.6299212598425197
        },
        {
          "duration": 0.0765305000000005,
          "durationTicks": 1920,
          "midi": 44,
          "name": "G#2",
          "ticks": 418560,
          "time": 16.683649,
          "velocity": 0.6299212598425197
        },
        {
          "duration": 0.0765305000000005,
          "durationTicks": 1920,
          "midi": 43,
          "name": "G2",
          "ticks": 422400,
          "time": 16.83671,
          "velocity": 0.6299212598425197
        },
        {
          "duration": 0.0765305000000005,
          "durationTicks": 1920,
          "midi": 44,
          "name": "G#2",
          "ticks": 426240,
          "time": 16.989771,
          "velocity": 0.6299212598425197
        },
        {
          "duration": 0.0765305000000005,
          "durationTicks": 1920,
          "midi": 43,
          "name": "G2",
          "ticks": 430080,
          "time": 17.142832,
          "velocity": 0.6299212598425197
        },
        {
          "duration": 0.0765305000000005,
          "durationTicks": 1920,
          "midi": 44,
          "name": "G#2",
          "ticks": 433920,
          "time": 17.295893,
          "velocity": 0.6299212598425197
        },
        {
          "duration": 0.0765305000000005,
          "durationTicks": 1920,
          "midi": 43,
          "name": "G2",
          "ticks": 437760,
          "time": 17.448954,
          "velocity": 0.6299212598425197
        },
        {
          "duration": 0.0765305000000005,
          "durationTicks": 1920,
          "midi": 44,
          "name": "G#2",
          "ticks": 441600,
          "time": 17.602015,
          "velocity": 0.6299212598425197
        },
        {
          "duration": 0.0765305000000005,
          "durationTicks": 1920,
          "midi": 43,
          "name": "G2",
          "ticks": 445440,
          "time": 17.755076,
          "velocity": 0.6299212598425197
        },
        {
          "duration": 0.0765305000000005,
          "durationTicks": 1920,
          "midi": 44,
          "name": "G#2",
          "ticks": 449280,
          "time": 17.908137,
          "velocity": 0.6299212598425197
        },
        {
          "duration": 0.0765305000000005,
          "durationTicks": 1920,
          "midi": 43,
          "name": "G2",
          "ticks": 453120,
          "time": 18.061198,
          "velocity": 0.6299212598425197
        },
        {
          "duration": 0.07653049999999695,
          "durationTicks": 1920,
          "midi": 44,
          "name": "G#2",
          "ticks": 456960,
          "time": 18.214259000000002,
          "velocity": 0.6299212598425197
        },
        {
          "duration": 0.0765305000000005,
          "durationTicks": 1920,
          "midi": 43,
          "name": "G2",
          "ticks": 460800,
          "time": 18.36732,
          "velocity": 0.6299212598425197
        },
        {
          "duration": 0.0765305000000005,
          "durationTicks": 1920,
          "midi": 44,
          "name": "G#2",
          "ticks": 464640,
          "time": 18.520381,
          "velocity": 0.6299212598425197
        },
        {
          "duration": 0.0765305000000005,
          "durationTicks": 1920,
          "midi": 43,
          "name": "G2",
          "ticks": 468480,
          "time": 18.673442,
          "velocity": 0.6299212598425197
        },
        {
          "duration": 0.0765305000000005,
          "durationTicks": 1920,
          "midi": 44,
          "name": "G#2",
          "ticks": 472320,
          "time": 18.826503,
          "velocity": 0.6299212598425197
        },
        {
          "duration": 0.0765305000000005,
          "durationTicks": 1920,
          "midi": 43,
          "name": "G2",
          "ticks": 476160,
          "time": 18.979564,
          "velocity": 0.6299212598425197
        },
        {
          "duration": 0.0765305000000005,
          "durationTicks": 1920,
          "midi": 44,
          "name": "G#2",
          "ticks": 480000,
          "time": 19.132625,
          "velocity": 0.6299212598425197
        },
        {
          "duration": 0.07653049999999695,
          "durationTicks": 1920,
          "midi": 43,
          "name": "G2",
          "ticks": 483840,
          "time": 19.285686000000002,
          "velocity": 0.6299212598425197
        },
        {
          "duration": 0.0765305000000005,
          "durationTicks": 1920,
          "midi": 43,
          "name": "G2",
          "ticks": 491520,
          "time": 19.591808,
          "velocity": 0.6299212598425197
        },
        {
          "duration": 0.0765305000000005,
          "durationTicks": 1920,
          "midi": 44,
          "name": "G#2",
          "ticks": 495360,
          "time": 19.744869,
          "velocity": 0.6299212598425197
        },
        {
          "duration": 0.0765305000000005,
          "durationTicks": 1920,
          "midi": 43,
          "name": "G2",
          "ticks": 499200,
          "time": 19.89793,
          "velocity": 0.6299212598425197
        },
        {
          "duration": 0.0765305000000005,
          "durationTicks": 1920,
          "midi": 44,
          "name": "G#2",
          "ticks": 503040,
          "time": 20.050991,
          "velocity": 0.6299212598425197
        },
        {
          "duration": 0.0765305000000005,
          "durationTicks": 1920,
          "midi": 43,
          "name": "G2",
          "ticks": 506880,
          "time": 20.204052,
          "velocity": 0.6299212598425197
        },
        {
          "duration": 0.07653049999999695,
          "durationTicks": 1920,
          "midi": 44,
          "name": "G#2",
          "ticks": 510720,
          "time": 20.357113000000002,
          "velocity": 0.6299212598425197
        },
        {
          "duration": 0.0765305000000005,
          "durationTicks": 1920,
          "midi": 43,
          "name": "G2",
          "ticks": 514560,
          "time": 20.510174,
          "velocity": 0.6299212598425197
        },
        {
          "duration": 0.0765305000000005,
          "durationTicks": 1920,
          "midi": 44,
          "name": "G#2",
          "ticks": 518400,
          "time": 20.663235,
          "velocity": 0.6299212598425197
        },
        {
          "duration": 0.0765305000000005,
          "durationTicks": 1920,
          "midi": 43,
          "name": "G2",
          "ticks": 522240,
          "time": 20.816296,
          "velocity": 0.6299212598425197
        },
        {
          "duration": 0.0765305000000005,
          "durationTicks": 1920,
          "midi": 44,
          "name": "G#2",
          "ticks": 526080,
          "time": 20.969357,
          "velocity": 0.6299212598425197
        },
        {
          "duration": 0.0765305000000005,
          "durationTicks": 1920,
          "midi": 43,
          "name": "G2",
          "ticks": 529920,
          "time": 21.122418,
          "velocity": 0.6299212598425197
        },
        {
          "duration": 0.0765305000000005,
          "durationTicks": 1920,
          "midi": 44,
          "name": "G#2",
          "ticks": 533760,
          "time": 21.275479,
          "velocity": 0.6299212598425197
        },
        {
          "duration": 0.07653049999999695,
          "durationTicks": 1920,
          "midi": 43,
          "name": "G2",
          "ticks": 537600,
          "time": 21.42854,
          "velocity": 0.6299212598425197
        },
        {
          "duration": 0.0765305000000005,
          "durationTicks": 1920,
          "midi": 44,
          "name": "G#2",
          "ticks": 541440,
          "time": 21.581601,
          "velocity": 0.6299212598425197
        },
        {
          "duration": 0.0765305000000005,
          "durationTicks": 1920,
          "midi": 43,
          "name": "G2",
          "ticks": 545280,
          "time": 21.734662,
          "velocity": 0.6299212598425197
        },
        {
          "duration": 0.0765305000000005,
          "durationTicks": 1920,
          "midi": 44,
          "name": "G#2",
          "ticks": 549120,
          "time": 21.887723,
          "velocity": 0.6299212598425197
        },
        {
          "duration": 0.07653049999999695,
          "durationTicks": 1920,
          "midi": 43,
          "name": "G2",
          "ticks": 552960,
          "time": 22.040784000000002,
          "velocity": 0.6299212598425197
        },
        {
          "duration": 0.0765305000000005,
          "durationTicks": 1920,
          "midi": 44,
          "name": "G#2",
          "ticks": 556800,
          "time": 22.193845,
          "velocity": 0.6299212598425197
        },
        {
          "duration": 0.0765305000000005,
          "durationTicks": 1920,
          "midi": 43,
          "name": "G2",
          "ticks": 560640,
          "time": 22.346906,
          "velocity": 0.6299212598425197
        },
        {
          "duration": 0.0765305000000005,
          "durationTicks": 1920,
          "midi": 44,
          "name": "G#2",
          "ticks": 564480,
          "time": 22.499967,
          "velocity": 0.6299212598425197
        },
        {
          "duration": 0.0765305000000005,
          "durationTicks": 1920,
          "midi": 43,
          "name": "G2",
          "ticks": 568320,
          "time": 22.653028,
          "velocity": 0.6299212598425197
        },
        {
          "duration": 0.0765305000000005,
          "durationTicks": 1920,
          "midi": 44,
          "name": "G#2",
          "ticks": 572160,
          "time": 22.806089,
          "velocity": 0.6299212598425197
        },
        {
          "duration": 0.0765305000000005,
          "durationTicks": 1920,
          "midi": 43,
          "name": "G2",
          "ticks": 576000,
          "time": 22.95915,
          "velocity": 0.6299212598425197
        },
        {
          "duration": 0.07653049999999695,
          "durationTicks": 1920,
          "midi": 44,
          "name": "G#2",
          "ticks": 579840,
          "time": 23.112211000000002,
          "velocity": 0.6299212598425197
        },
        {
          "duration": 0.0765305000000005,
          "durationTicks": 1920,
          "midi": 43,
          "name": "G2",
          "ticks": 583680,
          "time": 23.265272,
          "velocity": 0.6299212598425197
        },
        {
          "duration": 0.0765305000000005,
          "durationTicks": 1920,
          "midi": 44,
          "name": "G#2",
          "ticks": 587520,
          "time": 23.418333,
          "velocity": 0.6299212598425197
        },
        {
          "duration": 0.0765305000000005,
          "durationTicks": 1920,
          "midi": 43,
          "name": "G2",
          "ticks": 591360,
          "time": 23.571394,
          "velocity": 0.6299212598425197
        },
        {
          "duration": 0.0765305000000005,
          "durationTicks": 1920,
          "midi": 44,
          "name": "G#2",
          "ticks": 595200,
          "time": 23.724455,
          "velocity": 0.6299212598425197
        },
        {
          "duration": 0.0765305000000005,
          "durationTicks": 1920,
          "midi": 43,
          "name": "G2",
          "ticks": 599040,
          "time": 23.877516,
          "velocity": 0.6299212598425197
        },
        {
          "duration": 0.0765305000000005,
          "durationTicks": 1920,
          "midi": 44,
          "name": "G#2",
          "ticks": 602880,
          "time": 24.030577,
          "velocity": 0.6299212598425197
        },
        {
          "duration": 0.07653049999999695,
          "durationTicks": 1920,
          "midi": 43,
          "name": "G2",
          "ticks": 606720,
          "time": 24.183638000000002,
          "velocity": 0.6299212598425197
        },
        {
          "duration": 0.0765305000000005,
          "durationTicks": 1920,
          "midi": 44,
          "name": "G#2",
          "ticks": 610560,
          "time": 24.336699,
          "velocity": 0.6299212598425197
        },
        {
          "duration": 0.0765305000000005,
          "durationTicks": 1920,
          "midi": 43,
          "name": "G2",
          "ticks": 614400,
          "time": 24.48976,
          "velocity": 0.6299212598425197
        },
        {
          "duration": 0.0765305000000005,
          "durationTicks": 1920,
          "midi": 44,
          "name": "G#2",
          "ticks": 618240,
          "time": 24.642821,
          "velocity": 0.6299212598425197
        },
        {
          "duration": 0.0765305000000005,
          "durationTicks": 1920,
          "midi": 43,
          "name": "G2",
          "ticks": 622080,
          "time": 24.795882,
          "velocity": 0.6299212598425197
        },
        {
          "duration": 0.0765305000000005,
          "durationTicks": 1920,
          "midi": 44,
          "name": "G#2",
          "ticks": 625920,
          "time": 24.948943,
          "velocity": 0.6299212598425197
        },
        {
          "duration": 0.0765305000000005,
          "durationTicks": 1920,
          "midi": 43,
          "name": "G2",
          "ticks": 629760,
          "time": 25.102004,
          "velocity": 0.6299212598425197
        },
        {
          "duration": 0.07653049999999695,
          "durationTicks": 1920,
          "midi": 44,
          "name": "G#2",
          "ticks": 633600,
          "time": 25.255065000000002,
          "velocity": 0.6299212598425197
        },
        {
          "duration": 0.0765305000000005,
          "durationTicks": 1920,
          "midi": 43,
          "name": "G2",
          "ticks": 637440,
          "time": 25.408126,
          "velocity": 0.6299212598425197
        },
        {
          "duration": 0.0765305000000005,
          "durationTicks": 1920,
          "midi": 44,
          "name": "G#2",
          "ticks": 641280,
          "time": 25.561187,
          "velocity": 0.6299212598425197
        },
        {
          "duration": 0.0765305000000005,
          "durationTicks": 1920,
          "midi": 43,
          "name": "G2",
          "ticks": 645120,
          "time": 25.714248,
          "velocity": 0.6299212598425197
        },
        {
          "duration": 0.0765305000000005,
          "durationTicks": 1920,
          "midi": 44,
          "name": "G#2",
          "ticks": 648960,
          "time": 25.867309,
          "velocity": 0.6299212598425197
        },
        {
          "duration": 0.0765305000000005,
          "durationTicks": 1920,
          "midi": 43,
          "name": "G2",
          "ticks": 652800,
          "time": 26.02037,
          "velocity": 0.6299212598425197
        },
        {
          "duration": 0.0765305000000005,
          "durationTicks": 1920,
          "midi": 44,
          "name": "G#2",
          "ticks": 656640,
          "time": 26.173431,
          "velocity": 0.6299212598425197
        },
        {
          "duration": 0.07653049999999695,
          "durationTicks": 1920,
          "midi": 43,
          "name": "G2",
          "ticks": 660480,
          "time": 26.326492000000002,
          "velocity": 0.6299212598425197
        },
        {
          "duration": 0.0765305000000005,
          "durationTicks": 1920,
          "midi": 44,
          "name": "G#2",
          "ticks": 664320,
          "time": 26.479553,
          "velocity": 0.6299212598425197
        },
        {
          "duration": 0.0765305000000005,
          "durationTicks": 1920,
          "midi": 43,
          "name": "G2",
          "ticks": 668160,
          "time": 26.632614,
          "velocity": 0.6299212598425197
        },
        {
          "duration": 0.0765305000000005,
          "durationTicks": 1920,
          "midi": 44,
          "name": "G#2",
          "ticks": 672000,
          "time": 26.785675,
          "velocity": 0.6299212598425197
        },
        {
          "duration": 0.0765305000000005,
          "durationTicks": 1920,
          "midi": 43,
          "name": "G2",
          "ticks": 675840,
          "time": 26.938736,
          "velocity": 0.6299212598425197
        },
        {
          "duration": 0.0765305000000005,
          "durationTicks": 1920,
          "midi": 44,
          "name": "G#2",
          "ticks": 679680,
          "time": 27.091797,
          "velocity": 0.6299212598425197
        },
        {
          "duration": 0.0765305000000005,
          "durationTicks": 1920,
          "midi": 43,
          "name": "G2",
          "ticks": 683520,
          "time": 27.244858,
          "velocity": 0.6299212598425197
        },
        {
          "duration": 0.0765305000000005,
          "durationTicks": 1920,
          "midi": 44,
          "name": "G#2",
          "ticks": 687360,
          "time": 27.397919,
          "velocity": 0.6299212598425197
        },
        {
          "duration": 0.0765305000000005,
          "durationTicks": 1920,
          "midi": 43,
          "name": "G2",
          "ticks": 691200,
          "time": 27.55098,
          "velocity": 0.6299212598425197
        },
        {
          "duration": 0.0765305000000005,
          "durationTicks": 1920,
          "midi": 44,
          "name": "G#2",
          "ticks": 695040,
          "time": 27.704041,
          "velocity": 0.6299212598425197
        },
        {
          "duration": 0.0765305000000005,
          "durationTicks": 1920,
          "midi": 43,
          "name": "G2",
          "ticks": 698880,
          "time": 27.857102,
          "velocity": 0.6299212598425197
        },
        {
          "duration": 0.07653049999999695,
          "durationTicks": 1920,
          "midi": 44,
          "name": "G#2",
          "ticks": 702720,
          "time": 28.010163000000002,
          "velocity": 0.6299212598425197
        },
        {
          "duration": 0.0765305000000005,
          "durationTicks": 1920,
          "midi": 43,
          "name": "G2",
          "ticks": 706560,
          "time": 28.163224,
          "velocity": 0.6299212598425197
        },
        {
          "duration": 0.0765305000000005,
          "durationTicks": 1920,
          "midi": 44,
          "name": "G#2",
          "ticks": 710400,
          "time": 28.316285,
          "velocity": 0.6299212598425197
        },
        {
          "duration": 0.0765305000000005,
          "durationTicks": 1920,
          "midi": 43,
          "name": "G2",
          "ticks": 714240,
          "time": 28.469346,
          "velocity": 0.6299212598425197
        },
        {
          "duration": 0.0765305000000005,
          "durationTicks": 1920,
          "midi": 44,
          "name": "G#2",
          "ticks": 718080,
          "time": 28.622407,
          "velocity": 0.6299212598425197
        },
        {
          "duration": 0.0765305000000005,
          "durationTicks": 1920,
          "midi": 43,
          "name": "G2",
          "ticks": 721920,
          "time": 28.775468,
          "velocity": 0.6299212598425197
        },
        {
          "duration": 0.0765305000000005,
          "durationTicks": 1920,
          "midi": 44,
          "name": "G#2",
          "ticks": 725760,
          "time": 28.928529,
          "velocity": 0.6299212598425197
        },
        {
          "duration": 0.07653049999999695,
          "durationTicks": 1920,
          "midi": 43,
          "name": "G2",
          "ticks": 729600,
          "time": 29.081590000000002,
          "velocity": 0.6299212598425197
        },
        {
          "duration": 0.0765305000000005,
          "durationTicks": 1920,
          "midi": 44,
          "name": "G#2",
          "ticks": 733440,
          "time": 29.234651,
          "velocity": 0.6299212598425197
        },
        {
          "duration": 0.0765305000000005,
          "durationTicks": 1920,
          "midi": 43,
          "name": "G2",
          "ticks": 737280,
          "time": 29.387712,
          "velocity": 0.6299212598425197
        },
        {
          "duration": 0.0765305000000005,
          "durationTicks": 1920,
          "midi": 44,
          "name": "G#2",
          "ticks": 741120,
          "time": 29.540773,
          "velocity": 0.6299212598425197
        },
        {
          "duration": 0.0765305000000005,
          "durationTicks": 1920,
          "midi": 43,
          "name": "G2",
          "ticks": 744960,
          "time": 29.693834,
          "velocity": 0.6299212598425197
        },
        {
          "duration": 0.0765305000000005,
          "durationTicks": 1920,
          "midi": 44,
          "name": "G#2",
          "ticks": 748800,
          "time": 29.846895,
          "velocity": 0.6299212598425197
        },
        {
          "duration": 0.0765305000000005,
          "durationTicks": 1920,
          "midi": 43,
          "name": "G2",
          "ticks": 752640,
          "time": 29.999956,
          "velocity": 0.6299212598425197
        },
        {
          "duration": 0.07653049999999695,
          "durationTicks": 1920,
          "midi": 44,
          "name": "G#2",
          "ticks": 756480,
          "time": 30.153017000000002,
          "velocity": 0.6299212598425197
        },
        {
          "duration": 0.0765305000000005,
          "durationTicks": 1920,
          "midi": 43,
          "name": "G2",
          "ticks": 760320,
          "time": 30.306078,
          "velocity": 0.6299212598425197
        },
        {
          "duration": 0.0765305000000005,
          "durationTicks": 1920,
          "midi": 44,
          "name": "G#2",
          "ticks": 764160,
          "time": 30.459139,
          "velocity": 0.6299212598425197
        },
        {
          "duration": 0.0765305000000005,
          "durationTicks": 1920,
          "midi": 43,
          "name": "G2",
          "ticks": 768000,
          "time": 30.6122,
          "velocity": 0.6299212598425197
        },
        {
          "duration": 0.0765305000000005,
          "durationTicks": 1920,
          "midi": 44,
          "name": "G#2",
          "ticks": 771840,
          "time": 30.765261,
          "velocity": 0.6299212598425197
        },
        {
          "duration": 0.0765305000000005,
          "durationTicks": 1920,
          "midi": 43,
          "name": "G2",
          "ticks": 775680,
          "time": 30.918322,
          "velocity": 0.6299212598425197
        },
        {
          "duration": 0.0765305000000005,
          "durationTicks": 1920,
          "midi": 44,
          "name": "G#2",
          "ticks": 779520,
          "time": 31.071383,
          "velocity": 0.6299212598425197
        },
        {
          "duration": 0.07653049999999695,
          "durationTicks": 1920,
          "midi": 43,
          "name": "G2",
          "ticks": 783360,
          "time": 31.224444000000002,
          "velocity": 0.6299212598425197
        },
        {
          "duration": 0.0765305000000005,
          "durationTicks": 1920,
          "midi": 44,
          "name": "G#2",
          "ticks": 787200,
          "time": 31.377505,
          "velocity": 0.6299212598425197
        },
        {
          "duration": 0.0765305000000005,
          "durationTicks": 1920,
          "midi": 43,
          "name": "G2",
          "ticks": 791040,
          "time": 31.530566,
          "velocity": 0.6299212598425197
        },
        {
          "duration": 0.0765305000000005,
          "durationTicks": 1920,
          "midi": 44,
          "name": "G#2",
          "ticks": 794880,
          "time": 31.683627,
          "velocity": 0.6299212598425197
        },
        {
          "duration": 0.07653049999999695,
          "durationTicks": 1920,
          "midi": 43,
          "name": "G2",
          "ticks": 798720,
          "time": 31.836688000000002,
          "velocity": 0.6299212598425197
        },
        {
          "duration": 0.0765305000000005,
          "durationTicks": 1920,
          "midi": 44,
          "name": "G#2",
          "ticks": 802560,
          "time": 31.989749,
          "velocity": 0.6299212598425197
        },
        {
          "duration": 0.07653050000000405,
          "durationTicks": 1920,
          "midi": 43,
          "name": "G2",
          "ticks": 806400,
          "time": 32.14281,
          "velocity": 0.6299212598425197
        },
        {
          "duration": 0.07653050000000405,
          "durationTicks": 1920,
          "midi": 44,
          "name": "G#2",
          "ticks": 810240,
          "time": 32.295871,
          "velocity": 0.6299212598425197
        },
        {
          "duration": 0.07653050000000405,
          "durationTicks": 1920,
          "midi": 43,
          "name": "G2",
          "ticks": 814080,
          "time": 32.448932,
          "velocity": 0.6299212598425197
        },
        {
          "duration": 0.07653049999999695,
          "durationTicks": 1920,
          "midi": 44,
          "name": "G#2",
          "ticks": 817920,
          "time": 32.601993,
          "velocity": 0.6299212598425197
        },
        {
          "duration": 0.07653049999999695,
          "durationTicks": 1920,
          "midi": 43,
          "name": "G2",
          "ticks": 821760,
          "time": 32.755054,
          "velocity": 0.6299212598425197
        },
        {
          "duration": 0.07653049999999695,
          "durationTicks": 1920,
          "midi": 44,
          "name": "G#2",
          "ticks": 825600,
          "time": 32.908115,
          "velocity": 0.6299212598425197
        },
        {
          "duration": 0.07653049999999695,
          "durationTicks": 1920,
          "midi": 43,
          "name": "G2",
          "ticks": 829440,
          "time": 33.061176,
          "velocity": 0.6299212598425197
        },
        {
          "duration": 0.07653050000000405,
          "durationTicks": 1920,
          "midi": 44,
          "name": "G#2",
          "ticks": 833280,
          "time": 33.214237,
          "velocity": 0.6299212598425197
        },
        {
          "duration": 0.07653050000000405,
          "durationTicks": 1920,
          "midi": 43,
          "name": "G2",
          "ticks": 837120,
          "time": 33.367298,
          "velocity": 0.6299212598425197
        },
        {
          "duration": 0.07653050000000405,
          "durationTicks": 1920,
          "midi": 44,
          "name": "G#2",
          "ticks": 840960,
          "time": 33.520359,
          "velocity": 0.6299212598425197
        },
        {
          "duration": 0.07653049999999695,
          "durationTicks": 1920,
          "midi": 43,
          "name": "G2",
          "ticks": 844800,
          "time": 33.67342,
          "velocity": 0.6299212598425197
        },
        {
          "duration": 0.07653049999999695,
          "durationTicks": 1920,
          "midi": 44,
          "name": "G#2",
          "ticks": 848640,
          "time": 33.826481,
          "velocity": 0.6299212598425197
        },
        {
          "duration": 0.07653049999999695,
          "durationTicks": 1920,
          "midi": 43,
          "name": "G2",
          "ticks": 852480,
          "time": 33.979542,
          "velocity": 0.6299212598425197
        },
        {
          "duration": 0.07653049999999695,
          "durationTicks": 1920,
          "midi": 44,
          "name": "G#2",
          "ticks": 856320,
          "time": 34.132603,
          "velocity": 0.6299212598425197
        },
        {
          "duration": 0.07653050000000405,
          "durationTicks": 1920,
          "midi": 43,
          "name": "G2",
          "ticks": 860160,
          "time": 34.285664,
          "velocity": 0.6299212598425197
        },
        {
          "duration": 0.07653050000000405,
          "durationTicks": 1920,
          "midi": 44,
          "name": "G#2",
          "ticks": 864000,
          "time": 34.438725,
          "velocity": 0.6299212598425197
        },
        {
          "duration": 0.07653050000000405,
          "durationTicks": 1920,
          "midi": 43,
          "name": "G2",
          "ticks": 867840,
          "time": 34.591786,
          "velocity": 0.6299212598425197
        },
        {
          "duration": 0.07653050000000405,
          "durationTicks": 1920,
          "midi": 44,
          "name": "G#2",
          "ticks": 871680,
          "time": 34.744847,
          "velocity": 0.6299212598425197
        },
        {
          "duration": 0.07653049999999695,
          "durationTicks": 1920,
          "midi": 43,
          "name": "G2",
          "ticks": 875520,
          "time": 34.897908,
          "velocity": 0.6299212598425197
        },
        {
          "duration": 0.07653049999999695,
          "durationTicks": 1920,
          "midi": 44,
          "name": "G#2",
          "ticks": 879360,
          "time": 35.050969,
          "velocity": 0.6299212598425197
        },
        {
          "duration": 0.07653049999999695,
          "durationTicks": 1920,
          "midi": 43,
          "name": "G2",
          "ticks": 883200,
          "time": 35.20403,
          "velocity": 0.6299212598425197
        },
        {
          "duration": 0.07653049999999695,
          "durationTicks": 1920,
          "midi": 44,
          "name": "G#2",
          "ticks": 887040,
          "time": 35.357091000000004,
          "velocity": 0.6299212598425197
        },
        {
          "duration": 0.07653050000000405,
          "durationTicks": 1920,
          "midi": 43,
          "name": "G2",
          "ticks": 890880,
          "time": 35.510152,
          "velocity": 0.6299212598425197
        },
        {
          "duration": 0.07653050000000405,
          "durationTicks": 1920,
          "midi": 44,
          "name": "G#2",
          "ticks": 894720,
          "time": 35.663213,
          "velocity": 0.6299212598425197
        },
        {
          "duration": 0.07653050000000405,
          "durationTicks": 1920,
          "midi": 43,
          "name": "G2",
          "ticks": 898560,
          "time": 35.816274,
          "velocity": 0.6299212598425197
        },
        {
          "duration": 0.07653049999999695,
          "durationTicks": 1920,
          "midi": 44,
          "name": "G#2",
          "ticks": 902400,
          "time": 35.969335,
          "velocity": 0.6299212598425197
        },
        {
          "duration": 0.07653049999999695,
          "durationTicks": 1920,
          "midi": 43,
          "name": "G2",
          "ticks": 906240,
          "time": 36.122396,
          "velocity": 0.6299212598425197
        },
        {
          "duration": 0.07653049999999695,
          "durationTicks": 1920,
          "midi": 44,
          "name": "G#2",
          "ticks": 910080,
          "time": 36.275457,
          "velocity": 0.6299212598425197
        },
        {
          "duration": 0.07653049999999695,
          "durationTicks": 1920,
          "midi": 43,
          "name": "G2",
          "ticks": 913920,
          "time": 36.428518000000004,
          "velocity": 0.6299212598425197
        },
        {
          "duration": 0.07653050000000405,
          "durationTicks": 1920,
          "midi": 44,
          "name": "G#2",
          "ticks": 917760,
          "time": 36.581579,
          "velocity": 0.6299212598425197
        },
        {
          "duration": 0.07653050000000405,
          "durationTicks": 1920,
          "midi": 43,
          "name": "G2",
          "ticks": 921600,
          "time": 36.73464,
          "velocity": 0.6299212598425197
        },
        {
          "duration": 0.07653050000000405,
          "durationTicks": 1920,
          "midi": 44,
          "name": "G#2",
          "ticks": 925440,
          "time": 36.887701,
          "velocity": 0.6299212598425197
        },
        {
          "duration": 0.07653049999999695,
          "durationTicks": 1920,
          "midi": 43,
          "name": "G2",
          "ticks": 929280,
          "time": 37.040762,
          "velocity": 0.6299212598425197
        },
        {
          "duration": 0.07653049999999695,
          "durationTicks": 1920,
          "midi": 44,
          "name": "G#2",
          "ticks": 933120,
          "time": 37.193823,
          "velocity": 0.6299212598425197
        },
        {
          "duration": 0.07653049999999695,
          "durationTicks": 1920,
          "midi": 43,
          "name": "G2",
          "ticks": 936960,
          "time": 37.346884,
          "velocity": 0.6299212598425197
        },
        {
          "duration": 0.07653049999999695,
          "durationTicks": 1920,
          "midi": 44,
          "name": "G#2",
          "ticks": 940800,
          "time": 37.499945000000004,
          "velocity": 0.6299212598425197
        },
        {
          "duration": 0.07653050000000405,
          "durationTicks": 1920,
          "midi": 43,
          "name": "G2",
          "ticks": 944640,
          "time": 37.653006,
          "velocity": 0.6299212598425197
        },
        {
          "duration": 0.07653050000000405,
          "durationTicks": 1920,
          "midi": 44,
          "name": "G#2",
          "ticks": 948480,
          "time": 37.806067,
          "velocity": 0.6299212598425197
        },
        {
          "duration": 0.07653050000000405,
          "durationTicks": 1920,
          "midi": 43,
          "name": "G2",
          "ticks": 952320,
          "time": 37.959128,
          "velocity": 0.6299212598425197
        },
        {
          "duration": 0.07653049999999695,
          "durationTicks": 1920,
          "midi": 44,
          "name": "G#2",
          "ticks": 956160,
          "time": 38.112189,
          "velocity": 0.6299212598425197
        },
        {
          "duration": 0.07653049999999695,
          "durationTicks": 1920,
          "midi": 43,
          "name": "G2",
          "ticks": 960000,
          "time": 38.26525,
          "velocity": 0.6299212598425197
        },
        {
          "duration": 0.07653049999999695,
          "durationTicks": 1920,
          "midi": 44,
          "name": "G#2",
          "ticks": 963840,
          "time": 38.418311,
          "velocity": 0.6299212598425197
        },
        {
          "duration": 0.07653049999999695,
          "durationTicks": 1920,
          "midi": 43,
          "name": "G2",
          "ticks": 967680,
          "time": 38.571372000000004,
          "velocity": 0.6299212598425197
        },
        {
          "duration": 0.07653050000000405,
          "durationTicks": 1920,
          "midi": 44,
          "name": "G#2",
          "ticks": 971520,
          "time": 38.724433,
          "velocity": 0.6299212598425197
        },
        {
          "duration": 0.07653050000000405,
          "durationTicks": 1920,
          "midi": 43,
          "name": "G2",
          "ticks": 975360,
          "time": 38.877494,
          "velocity": 0.6299212598425197
        },
        {
          "duration": 0.07653049999999695,
          "durationTicks": 1920,
          "midi": 43,
          "name": "G2",
          "ticks": 983040,
          "time": 39.183616,
          "velocity": 0.6299212598425197
        },
        {
          "duration": 0.07653049999999695,
          "durationTicks": 1920,
          "midi": 44,
          "name": "G#2",
          "ticks": 986880,
          "time": 39.336677,
          "velocity": 0.6299212598425197
        },
        {
          "duration": 0.07653049999999695,
          "durationTicks": 1920,
          "midi": 43,
          "name": "G2",
          "ticks": 990720,
          "time": 39.489738,
          "velocity": 0.6299212598425197
        },
        {
          "duration": 0.07653049999999695,
          "durationTicks": 1920,
          "midi": 44,
          "name": "G#2",
          "ticks": 994560,
          "time": 39.642799000000004,
          "velocity": 0.6299212598425197
        },
        {
          "duration": 0.07653050000000405,
          "durationTicks": 1920,
          "midi": 43,
          "name": "G2",
          "ticks": 998400,
          "time": 39.79586,
          "velocity": 0.6299212598425197
        },
        {
          "duration": 0.07653050000000405,
          "durationTicks": 1920,
          "midi": 44,
          "name": "G#2",
          "ticks": 1002240,
          "time": 39.948921,
          "velocity": 0.6299212598425197
        },
        {
          "duration": 0.07653050000000405,
          "durationTicks": 1920,
          "midi": 43,
          "name": "G2",
          "ticks": 1006080,
          "time": 40.101982,
          "velocity": 0.6299212598425197
        },
        {
          "duration": 0.07653049999999695,
          "durationTicks": 1920,
          "midi": 44,
          "name": "G#2",
          "ticks": 1009920,
          "time": 40.255043,
          "velocity": 0.6299212598425197
        },
        {
          "duration": 0.07653049999999695,
          "durationTicks": 1920,
          "midi": 43,
          "name": "G2",
          "ticks": 1013760,
          "time": 40.408104,
          "velocity": 0.6299212598425197
        },
        {
          "duration": 0.07653049999999695,
          "durationTicks": 1920,
          "midi": 44,
          "name": "G#2",
          "ticks": 1017600,
          "time": 40.561165,
          "velocity": 0.6299212598425197
        },
        {
          "duration": 0.07653049999999695,
          "durationTicks": 1920,
          "midi": 43,
          "name": "G2",
          "ticks": 1021440,
          "time": 40.714226000000004,
          "velocity": 0.6299212598425197
        },
        {
          "duration": 0.07653050000000405,
          "durationTicks": 1920,
          "midi": 44,
          "name": "G#2",
          "ticks": 1025280,
          "time": 40.867287,
          "velocity": 0.6299212598425197
        },
        {
          "duration": 0.07653050000000405,
          "durationTicks": 1920,
          "midi": 43,
          "name": "G2",
          "ticks": 1029120,
          "time": 41.020348,
          "velocity": 0.6299212598425197
        },
        {
          "duration": 0.07653050000000405,
          "durationTicks": 1920,
          "midi": 44,
          "name": "G#2",
          "ticks": 1032960,
          "time": 41.173409,
          "velocity": 0.6299212598425197
        },
        {
          "duration": 0.07653049999999695,
          "durationTicks": 1920,
          "midi": 43,
          "name": "G2",
          "ticks": 1036800,
          "time": 41.32647,
          "velocity": 0.6299212598425197
        },
        {
          "duration": 0.07653049999999695,
          "durationTicks": 1920,
          "midi": 44,
          "name": "G#2",
          "ticks": 1040640,
          "time": 41.479531,
          "velocity": 0.6299212598425197
        },
        {
          "duration": 0.07653049999999695,
          "durationTicks": 1920,
          "midi": 43,
          "name": "G2",
          "ticks": 1044480,
          "time": 41.632592,
          "velocity": 0.6299212598425197
        },
        {
          "duration": 0.07653049999999695,
          "durationTicks": 1920,
          "midi": 44,
          "name": "G#2",
          "ticks": 1048320,
          "time": 41.785653,
          "velocity": 0.6299212598425197
        },
        {
          "duration": 0.07653050000000405,
          "durationTicks": 1920,
          "midi": 43,
          "name": "G2",
          "ticks": 1052160,
          "time": 41.938714,
          "velocity": 0.6299212598425197
        },
        {
          "duration": 0.07653050000000405,
          "durationTicks": 1920,
          "midi": 44,
          "name": "G#2",
          "ticks": 1056000,
          "time": 42.091775,
          "velocity": 0.6299212598425197
        },
        {
          "duration": 0.07653050000000405,
          "durationTicks": 1920,
          "midi": 43,
          "name": "G2",
          "ticks": 1059840,
          "time": 42.244836,
          "velocity": 0.6299212598425197
        },
        {
          "duration": 0.07653049999999695,
          "durationTicks": 1920,
          "midi": 44,
          "name": "G#2",
          "ticks": 1063680,
          "time": 42.397897,
          "velocity": 0.6299212598425197
        },
        {
          "duration": 0.07653049999999695,
          "durationTicks": 1920,
          "midi": 43,
          "name": "G2",
          "ticks": 1067520,
          "time": 42.550958,
          "velocity": 0.6299212598425197
        },
        {
          "duration": 0.07653049999999695,
          "durationTicks": 1920,
          "midi": 44,
          "name": "G#2",
          "ticks": 1071360,
          "time": 42.704019,
          "velocity": 0.6299212598425197
        },
        {
          "duration": 0.07653049999999695,
          "durationTicks": 1920,
          "midi": 43,
          "name": "G2",
          "ticks": 1075200,
          "time": 42.85708,
          "velocity": 0.6299212598425197
        },
        {
          "duration": 0.07653050000000405,
          "durationTicks": 1920,
          "midi": 44,
          "name": "G#2",
          "ticks": 1079040,
          "time": 43.010141,
          "velocity": 0.6299212598425197
        },
        {
          "duration": 0.07653050000000405,
          "durationTicks": 1920,
          "midi": 43,
          "name": "G2",
          "ticks": 1082880,
          "time": 43.163202,
          "velocity": 0.6299212598425197
        },
        {
          "duration": 0.07653050000000405,
          "durationTicks": 1920,
          "midi": 44,
          "name": "G#2",
          "ticks": 1086720,
          "time": 43.316263,
          "velocity": 0.6299212598425197
        },
        {
          "duration": 0.07653049999999695,
          "durationTicks": 1920,
          "midi": 43,
          "name": "G2",
          "ticks": 1090560,
          "time": 43.469324,
          "velocity": 0.6299212598425197
        },
        {
          "duration": 0.07653049999999695,
          "durationTicks": 1920,
          "midi": 44,
          "name": "G#2",
          "ticks": 1094400,
          "time": 43.622385,
          "velocity": 0.6299212598425197
        },
        {
          "duration": 0.07653049999999695,
          "durationTicks": 1920,
          "midi": 43,
          "name": "G2",
          "ticks": 1098240,
          "time": 43.775446,
          "velocity": 0.6299212598425197
        },
        {
          "duration": 0.07653049999999695,
          "durationTicks": 1920,
          "midi": 44,
          "name": "G#2",
          "ticks": 1102080,
          "time": 43.928507,
          "velocity": 0.6299212598425197
        },
        {
          "duration": 0.07653049999999695,
          "durationTicks": 1920,
          "midi": 43,
          "name": "G2",
          "ticks": 1105920,
          "time": 44.081568000000004,
          "velocity": 0.6299212598425197
        },
        {
          "duration": 0.07653050000000405,
          "durationTicks": 1920,
          "midi": 44,
          "name": "G#2",
          "ticks": 1109760,
          "time": 44.234629,
          "velocity": 0.6299212598425197
        },
        {
          "duration": 0.07653050000000405,
          "durationTicks": 1920,
          "midi": 43,
          "name": "G2",
          "ticks": 1113600,
          "time": 44.38769,
          "velocity": 0.6299212598425197
        },
        {
          "duration": 0.07653050000000405,
          "durationTicks": 1920,
          "midi": 44,
          "name": "G#2",
          "ticks": 1117440,
          "time": 44.540751,
          "velocity": 0.6299212598425197
        },
        {
          "duration": 0.07653049999999695,
          "durationTicks": 1920,
          "midi": 43,
          "name": "G2",
          "ticks": 1121280,
          "time": 44.693812,
          "velocity": 0.6299212598425197
        },
        {
          "duration": 0.07653049999999695,
          "durationTicks": 1920,
          "midi": 44,
          "name": "G#2",
          "ticks": 1125120,
          "time": 44.846873,
          "velocity": 0.6299212598425197
        },
        {
          "duration": 0.07653049999999695,
          "durationTicks": 1920,
          "midi": 43,
          "name": "G2",
          "ticks": 1128960,
          "time": 44.999934,
          "velocity": 0.6299212598425197
        },
        {
          "duration": 0.07653049999999695,
          "durationTicks": 1920,
          "midi": 44,
          "name": "G#2",
          "ticks": 1132800,
          "time": 45.152995000000004,
          "velocity": 0.6299212598425197
        },
        {
          "duration": 0.07653050000000405,
          "durationTicks": 1920,
          "midi": 43,
          "name": "G2",
          "ticks": 1136640,
          "time": 45.306056,
          "velocity": 0.6299212598425197
        },
        {
          "duration": 0.07653050000000405,
          "durationTicks": 1920,
          "midi": 44,
          "name": "G#2",
          "ticks": 1140480,
          "time": 45.459117,
          "velocity": 0.6299212598425197
        },
        {
          "duration": 0.07653050000000405,
          "durationTicks": 1920,
          "midi": 43,
          "name": "G2",
          "ticks": 1144320,
          "time": 45.612178,
          "velocity": 0.6299212598425197
        },
        {
          "duration": 0.07653049999999695,
          "durationTicks": 1920,
          "midi": 44,
          "name": "G#2",
          "ticks": 1148160,
          "time": 45.765239,
          "velocity": 0.6299212598425197
        },
        {
          "duration": 0.07653049999999695,
          "durationTicks": 1920,
          "midi": 43,
          "name": "G2",
          "ticks": 1152000,
          "time": 45.9183,
          "velocity": 0.6299212598425197
        },
        {
          "duration": 0.07653049999999695,
          "durationTicks": 1920,
          "midi": 44,
          "name": "G#2",
          "ticks": 1155840,
          "time": 46.071361,
          "velocity": 0.6299212598425197
        },
        {
          "duration": 0.07653049999999695,
          "durationTicks": 1920,
          "midi": 43,
          "name": "G2",
          "ticks": 1159680,
          "time": 46.224422000000004,
          "velocity": 0.6299212598425197
        },
        {
          "duration": 0.07653050000000405,
          "durationTicks": 1920,
          "midi": 44,
          "name": "G#2",
          "ticks": 1163520,
          "time": 46.377483,
          "velocity": 0.6299212598425197
        },
        {
          "duration": 0.07653050000000405,
          "durationTicks": 1920,
          "midi": 43,
          "name": "G2",
          "ticks": 1167360,
          "time": 46.530544,
          "velocity": 0.6299212598425197
        },
        {
          "duration": 0.07653050000000405,
          "durationTicks": 1920,
          "midi": 44,
          "name": "G#2",
          "ticks": 1171200,
          "time": 46.683605,
          "velocity": 0.6299212598425197
        },
        {
          "duration": 0.07653049999999695,
          "durationTicks": 1920,
          "midi": 43,
          "name": "G2",
          "ticks": 1175040,
          "time": 46.836666,
          "velocity": 0.6299212598425197
        },
        {
          "duration": 0.07653049999999695,
          "durationTicks": 1920,
          "midi": 44,
          "name": "G#2",
          "ticks": 1178880,
          "time": 46.989727,
          "velocity": 0.6299212598425197
        },
        {
          "duration": 0.07653049999999695,
          "durationTicks": 1920,
          "midi": 43,
          "name": "G2",
          "ticks": 1182720,
          "time": 47.142788,
          "velocity": 0.6299212598425197
        },
        {
          "duration": 0.07653049999999695,
          "durationTicks": 1920,
          "midi": 44,
          "name": "G#2",
          "ticks": 1186560,
          "time": 47.295849000000004,
          "velocity": 0.6299212598425197
        },
        {
          "duration": 0.07653050000000405,
          "durationTicks": 1920,
          "midi": 43,
          "name": "G2",
          "ticks": 1190400,
          "time": 47.44891,
          "velocity": 0.6299212598425197
        },
        {
          "duration": 0.07653050000000405,
          "durationTicks": 1920,
          "midi": 44,
          "name": "G#2",
          "ticks": 1194240,
          "time": 47.601971,
          "velocity": 0.6299212598425197
        },
        {
          "duration": 0.07653050000000405,
          "durationTicks": 1920,
          "midi": 43,
          "name": "G2",
          "ticks": 1198080,
          "time": 47.755032,
          "velocity": 0.6299212598425197
        },
        {
          "duration": 0.07653049999999695,
          "durationTicks": 1920,
          "midi": 44,
          "name": "G#2",
          "ticks": 1201920,
          "time": 47.908093,
          "velocity": 0.6299212598425197
        },
        {
          "duration": 0.07653049999999695,
          "durationTicks": 1920,
          "midi": 43,
          "name": "G2",
          "ticks": 1205760,
          "time": 48.061154,
          "velocity": 0.6299212598425197
        },
        {
          "duration": 0.07653049999999695,
          "durationTicks": 1920,
          "midi": 44,
          "name": "G#2",
          "ticks": 1209600,
          "time": 48.214215,
          "velocity": 0.6299212598425197
        },
        {
          "duration": 0.07653049999999695,
          "durationTicks": 1920,
          "midi": 43,
          "name": "G2",
          "ticks": 1213440,
          "time": 48.367276000000004,
          "velocity": 0.6299212598425197
        },
        {
          "duration": 0.07653050000000405,
          "durationTicks": 1920,
          "midi": 44,
          "name": "G#2",
          "ticks": 1217280,
          "time": 48.520337,
          "velocity": 0.6299212598425197
        },
        {
          "duration": 0.07653050000000405,
          "durationTicks": 1920,
          "midi": 43,
          "name": "G2",
          "ticks": 1221120,
          "time": 48.673398,
          "velocity": 0.6299212598425197
        },
        {
          "duration": 0.07653050000000405,
          "durationTicks": 1920,
          "midi": 44,
          "name": "G#2",
          "ticks": 1224960,
          "time": 48.826459,
          "velocity": 0.6299212598425197
        },
        {
          "duration": 0.07653049999999695,
          "durationTicks": 1920,
          "midi": 43,
          "name": "G2",
          "ticks": 1228800,
          "time": 48.97952,
          "velocity": 0.6299212598425197
        },
        {
          "duration": 0.07653049999999695,
          "durationTicks": 1920,
          "midi": 44,
          "name": "G#2",
          "ticks": 1232640,
          "time": 49.132581,
          "velocity": 0.6299212598425197
        },
        {
          "duration": 0.07653049999999695,
          "durationTicks": 1920,
          "midi": 43,
          "name": "G2",
          "ticks": 1236480,
          "time": 49.285642,
          "velocity": 0.6299212598425197
        },
        {
          "duration": 0.07653049999999695,
          "durationTicks": 1920,
          "midi": 44,
          "name": "G#2",
          "ticks": 1240320,
          "time": 49.438703000000004,
          "velocity": 0.6299212598425197
        },
        {
          "duration": 0.07653050000000405,
          "durationTicks": 1920,
          "midi": 43,
          "name": "G2",
          "ticks": 1244160,
          "time": 49.591764,
          "velocity": 0.6299212598425197
        },
        {
          "duration": 0.07653050000000405,
          "durationTicks": 1920,
          "midi": 44,
          "name": "G#2",
          "ticks": 1248000,
          "time": 49.744825,
          "velocity": 0.6299212598425197
        },
        {
          "duration": 0.07653050000000405,
          "durationTicks": 1920,
          "midi": 43,
          "name": "G2",
          "ticks": 1251840,
          "time": 49.897886,
          "velocity": 0.6299212598425197
        },
        {
          "duration": 0.07653049999999695,
          "durationTicks": 1920,
          "midi": 44,
          "name": "G#2",
          "ticks": 1255680,
          "time": 50.050947,
          "velocity": 0.6299212598425197
        },
        {
          "duration": 0.07653049999999695,
          "durationTicks": 1920,
          "midi": 43,
          "name": "G2",
          "ticks": 1259520,
          "time": 50.204008,
          "velocity": 0.6299212598425197
        },
        {
          "duration": 0.07653049999999695,
          "durationTicks": 1920,
          "midi": 44,
          "name": "G#2",
          "ticks": 1263360,
          "time": 50.357069,
          "velocity": 0.6299212598425197
        },
        {
          "duration": 0.07653049999999695,
          "durationTicks": 1920,
          "midi": 43,
          "name": "G2",
          "ticks": 1267200,
          "time": 50.510130000000004,
          "velocity": 0.6299212598425197
        },
        {
          "duration": 0.07653050000000405,
          "durationTicks": 1920,
          "midi": 44,
          "name": "G#2",
          "ticks": 1271040,
          "time": 50.663191,
          "velocity": 0.6299212598425197
        },
        {
          "duration": 0.07653050000000405,
          "durationTicks": 1920,
          "midi": 43,
          "name": "G2",
          "ticks": 1274880,
          "time": 50.816252,
          "velocity": 0.6299212598425197
        },
        {
          "duration": 0.07653050000000405,
          "durationTicks": 1920,
          "midi": 44,
          "name": "G#2",
          "ticks": 1278720,
          "time": 50.969313,
          "velocity": 0.6299212598425197
        },
        {
          "duration": 0.07653049999999695,
          "durationTicks": 1920,
          "midi": 43,
          "name": "G2",
          "ticks": 1282560,
          "time": 51.122374,
          "velocity": 0.6299212598425197
        },
        {
          "duration": 0.07653049999999695,
          "durationTicks": 1920,
          "midi": 44,
          "name": "G#2",
          "ticks": 1286400,
          "time": 51.275435,
          "velocity": 0.6299212598425197
        },
        {
          "duration": 0.07653049999999695,
          "durationTicks": 1920,
          "midi": 43,
          "name": "G2",
          "ticks": 1290240,
          "time": 51.428496,
          "velocity": 0.6299212598425197
        },
        {
          "duration": 0.07653049999999695,
          "durationTicks": 1920,
          "midi": 44,
          "name": "G#2",
          "ticks": 1294080,
          "time": 51.581557000000004,
          "velocity": 0.6299212598425197
        },
        {
          "duration": 0.07653050000000405,
          "durationTicks": 1920,
          "midi": 43,
          "name": "G2",
          "ticks": 1297920,
          "time": 51.734618,
          "velocity": 0.6299212598425197
        },
        {
          "duration": 0.07653050000000405,
          "durationTicks": 1920,
          "midi": 44,
          "name": "G#2",
          "ticks": 1301760,
          "time": 51.887679,
          "velocity": 0.6299212598425197
        },
        {
          "duration": 0.07653050000000405,
          "durationTicks": 1920,
          "midi": 43,
          "name": "G2",
          "ticks": 1305600,
          "time": 52.04074,
          "velocity": 0.6299212598425197
        },
        {
          "duration": 0.07653049999999695,
          "durationTicks": 1920,
          "midi": 44,
          "name": "G#2",
          "ticks": 1309440,
          "time": 52.193801,
          "velocity": 0.6299212598425197
        },
        {
          "duration": 0.07653049999999695,
          "durationTicks": 1920,
          "midi": 43,
          "name": "G2",
          "ticks": 1313280,
          "time": 52.346862,
          "velocity": 0.6299212598425197
        },
        {
          "duration": 0.07653049999999695,
          "durationTicks": 1920,
          "midi": 44,
          "name": "G#2",
          "ticks": 1317120,
          "time": 52.499923,
          "velocity": 0.6299212598425197
        },
        {
          "duration": 0.07653049999999695,
          "durationTicks": 1920,
          "midi": 43,
          "name": "G2",
          "ticks": 1320960,
          "time": 52.652984000000004,
          "velocity": 0.6299212598425197
        },
        {
          "duration": 0.07653050000000405,
          "durationTicks": 1920,
          "midi": 44,
          "name": "G#2",
          "ticks": 1324800,
          "time": 52.806045,
          "velocity": 0.6299212598425197
        },
        {
          "duration": 0.07653050000000405,
          "durationTicks": 1920,
          "midi": 43,
          "name": "G2",
          "ticks": 1328640,
          "time": 52.959106,
          "velocity": 0.6299212598425197
        },
        {
          "duration": 0.07653050000000405,
          "durationTicks": 1920,
          "midi": 44,
          "name": "G#2",
          "ticks": 1332480,
          "time": 53.112167,
          "velocity": 0.6299212598425197
        },
        {
          "duration": 0.07653049999999695,
          "durationTicks": 1920,
          "midi": 43,
          "name": "G2",
          "ticks": 1336320,
          "time": 53.265228,
          "velocity": 0.6299212598425197
        },
        {
          "duration": 0.07653049999999695,
          "durationTicks": 1920,
          "midi": 44,
          "name": "G#2",
          "ticks": 1340160,
          "time": 53.418289,
          "velocity": 0.6299212598425197
        },
        {
          "duration": 0.07653049999999695,
          "durationTicks": 1920,
          "midi": 43,
          "name": "G2",
          "ticks": 1344000,
          "time": 53.57135,
          "velocity": 0.6299212598425197
        },
        {
          "duration": 0.07653049999999695,
          "durationTicks": 1920,
          "midi": 44,
          "name": "G#2",
          "ticks": 1347840,
          "time": 53.724411,
          "velocity": 0.6299212598425197
        },
        {
          "duration": 0.07653050000000405,
          "durationTicks": 1920,
          "midi": 43,
          "name": "G2",
          "ticks": 1351680,
          "time": 53.877472,
          "velocity": 0.6299212598425197
        },
        {
          "duration": 0.07653050000000405,
          "durationTicks": 1920,
          "midi": 44,
          "name": "G#2",
          "ticks": 1355520,
          "time": 54.030533,
          "velocity": 0.6299212598425197
        },
        {
          "duration": 0.07653050000000405,
          "durationTicks": 1920,
          "midi": 43,
          "name": "G2",
          "ticks": 1359360,
          "time": 54.183594,
          "velocity": 0.6299212598425197
        },
        {
          "duration": 0.07653050000000405,
          "durationTicks": 1920,
          "midi": 44,
          "name": "G#2",
          "ticks": 1363200,
          "time": 54.336655,
          "velocity": 0.6299212598425197
        },
        {
          "duration": 0.07653049999999695,
          "durationTicks": 1920,
          "midi": 43,
          "name": "G2",
          "ticks": 1367040,
          "time": 54.489716,
          "velocity": 0.6299212598425197
        },
        {
          "duration": 0.07653049999999695,
          "durationTicks": 1920,
          "midi": 44,
          "name": "G#2",
          "ticks": 1370880,
          "time": 54.642777,
          "velocity": 0.6299212598425197
        },
        {
          "duration": 0.07653049999999695,
          "durationTicks": 1920,
          "midi": 43,
          "name": "G2",
          "ticks": 1374720,
          "time": 54.795838,
          "velocity": 0.6299212598425197
        },
        {
          "duration": 0.07653049999999695,
          "durationTicks": 1920,
          "midi": 44,
          "name": "G#2",
          "ticks": 1378560,
          "time": 54.948899000000004,
          "velocity": 0.6299212598425197
        },
        {
          "duration": 0.07653050000000405,
          "durationTicks": 1920,
          "midi": 43,
          "name": "G2",
          "ticks": 1382400,
          "time": 55.10196,
          "velocity": 0.6299212598425197
        },
        {
          "duration": 0.07653050000000405,
          "durationTicks": 1920,
          "midi": 44,
          "name": "G#2",
          "ticks": 1386240,
          "time": 55.255021,
          "velocity": 0.6299212598425197
        },
        {
          "duration": 0.07653050000000405,
          "durationTicks": 1920,
          "midi": 43,
          "name": "G2",
          "ticks": 1390080,
          "time": 55.408082,
          "velocity": 0.6299212598425197
        },
        {
          "duration": 0.07653049999999695,
          "durationTicks": 1920,
          "midi": 44,
          "name": "G#2",
          "ticks": 1393920,
          "time": 55.561143,
          "velocity": 0.6299212598425197
        },
        {
          "duration": 0.07653049999999695,
          "durationTicks": 1920,
          "midi": 43,
          "name": "G2",
          "ticks": 1397760,
          "time": 55.714204,
          "velocity": 0.6299212598425197
        },
        {
          "duration": 0.07653049999999695,
          "durationTicks": 1920,
          "midi": 44,
          "name": "G#2",
          "ticks": 1401600,
          "time": 55.867265,
          "velocity": 0.6299212598425197
        },
        {
          "duration": 0.07653049999999695,
          "durationTicks": 1920,
          "midi": 43,
          "name": "G2",
          "ticks": 1405440,
          "time": 56.020326000000004,
          "velocity": 0.6299212598425197
        },
        {
          "duration": 0.07653050000000405,
          "durationTicks": 1920,
          "midi": 44,
          "name": "G#2",
          "ticks": 1409280,
          "time": 56.173387,
          "velocity": 0.6299212598425197
        },
        {
          "duration": 0.07653050000000405,
          "durationTicks": 1920,
          "midi": 43,
          "name": "G2",
          "ticks": 1413120,
          "time": 56.326448,
          "velocity": 0.6299212598425197
        },
        {
          "duration": 0.07653050000000405,
          "durationTicks": 1920,
          "midi": 44,
          "name": "G#2",
          "ticks": 1416960,
          "time": 56.479509,
          "velocity": 0.6299212598425197
        },
        {
          "duration": 0.07653049999999695,
          "durationTicks": 1920,
          "midi": 43,
          "name": "G2",
          "ticks": 1420800,
          "time": 56.63257,
          "velocity": 0.6299212598425197
        },
        {
          "duration": 0.07653049999999695,
          "durationTicks": 1920,
          "midi": 44,
          "name": "G#2",
          "ticks": 1424640,
          "time": 56.785631,
          "velocity": 0.6299212598425197
        },
        {
          "duration": 0.07653049999999695,
          "durationTicks": 1920,
          "midi": 43,
          "name": "G2",
          "ticks": 1428480,
          "time": 56.938692,
          "velocity": 0.6299212598425197
        },
        {
          "duration": 0.07653049999999695,
          "durationTicks": 1920,
          "midi": 44,
          "name": "G#2",
          "ticks": 1432320,
          "time": 57.091753000000004,
          "velocity": 0.6299212598425197
        },
        {
          "duration": 0.07653050000000405,
          "durationTicks": 1920,
          "midi": 43,
          "name": "G2",
          "ticks": 1436160,
          "time": 57.244814,
          "velocity": 0.6299212598425197
        },
        {
          "duration": 0.07653050000000405,
          "durationTicks": 1920,
          "midi": 44,
          "name": "G#2",
          "ticks": 1440000,
          "time": 57.397875,
          "velocity": 0.6299212598425197
        },
        {
          "duration": 0.07653050000000405,
          "durationTicks": 1920,
          "midi": 43,
          "name": "G2",
          "ticks": 1443840,
          "time": 57.550936,
          "velocity": 0.6299212598425197
        },
        {
          "duration": 0.07653049999999695,
          "durationTicks": 1920,
          "midi": 44,
          "name": "G#2",
          "ticks": 1447680,
          "time": 57.703997,
          "velocity": 0.6299212598425197
        },
        {
          "duration": 0.07653049999999695,
          "durationTicks": 1920,
          "midi": 43,
          "name": "G2",
          "ticks": 1451520,
          "time": 57.857058,
          "velocity": 0.6299212598425197
        },
        {
          "duration": 0.07653049999999695,
          "durationTicks": 1920,
          "midi": 44,
          "name": "G#2",
          "ticks": 1455360,
          "time": 58.010119,
          "velocity": 0.6299212598425197
        },
        {
          "duration": 0.07653049999999695,
          "durationTicks": 1920,
          "midi": 43,
          "name": "G2",
          "ticks": 1459200,
          "time": 58.163180000000004,
          "velocity": 0.6299212598425197
        },
        {
          "duration": 0.07653050000000405,
          "durationTicks": 1920,
          "midi": 44,
          "name": "G#2",
          "ticks": 1463040,
          "time": 58.316241,
          "velocity": 0.6299212598425197
        },
        {
          "duration": 0.07653050000000405,
          "durationTicks": 1920,
          "midi": 43,
          "name": "G2",
          "ticks": 1466880,
          "time": 58.469302,
          "velocity": 0.6299212598425197
        }
];

export default cueSet2;
